<svg width="165" height="144" viewBox="0 0 165 144" fill="none" xmlns="http://www.w3.org/2000/svg">
<g clip-path="url(#clip0)">
<path fill-rule="evenodd" clip-rule="evenodd" d="M165 -18H-25V144H165V87.7171C164.913 93.1447 164.779 98.5724 164.6 104C163.8 127 146.6 144.6 127.3 143.3C120.851 142.9 100.729 141.65 80.6058 140.4C60.4789 139.15 40.3506 137.9 33.9 137.5C14.6 136.2 0.299999 119.2 1 99.6C1.6 81.3 1.6 63 1 44.8C0.4 25.1 14.7 8.2 34 6.9C65.0999 4.90001 96.1997 3.00002 127.3 1.10003V1.1C146.6 -0.2 163.8 17.4 164.6 40.4C164.779 45.8276 164.913 51.2553 165 56.6829V-18Z" fill="#F2F2F3"/>
<path fill-rule="evenodd" clip-rule="evenodd" d="M165 -18H-25V144H165V87.7171C164.913 93.1447 164.779 98.5724 164.6 104C163.8 127 146.6 144.6 127.3 143.3C120.851 142.9 100.729 141.65 80.6058 140.4C60.4789 139.15 40.3506 137.9 33.9 137.5C14.6 136.2 0.299999 119.2 1 99.6C1.6 81.3 1.6 63 1 44.8C0.4 25.1 14.7 8.2 34 6.9C65.0999 4.90001 96.1997 3.00002 127.3 1.10003V1.1C146.6 -0.2 163.8 17.4 164.6 40.4C164.779 45.8276 164.913 51.2553 165 56.6829V-18Z" fill="url(#paint0_linear)"/>
<path d="M124.9 139.3C124.3 139.3 123.6 139.3 123 139.2L36.7997 133.9C18.8997 132.7 5.39971 117.1 5.99971 98.5C6.59971 81.7 6.59971 64.7 5.99971 47.9C5.39971 29.2 18.8997 13.6 36.7997 12.4L123 7.1C123.6 7.1 124.3 7 124.9 7C142.4 7 157.2 23.5 157.9 43.8C158.6 63.3 158.6 83.1 157.9 102.6C157.2 122.8 142.4 139.3 124.9 139.3ZM124.9 7.9C124.3 7.9 123.7 7.9 123 8L36.8997 13.3C19.4997 14.5 6.29971 29.7 6.89971 47.8C7.49971 64.6 7.49971 81.7 6.89971 98.5C6.29971 116.7 19.4997 131.8 36.8997 133L123.1 138.3C123.7 138.3 124.3 138.4 125 138.4C142 138.4 156.4 122.3 157.1 102.5C157.8 83 157.8 63.3 157.1 43.8C156.3 24 141.9 7.9 124.9 7.9Z" fill="white"/>
</g>
<defs>
<linearGradient id="paint0_linear" x1="1.5" y1="71.5" x2="165" y2="72.5" gradientUnits="userSpaceOnUse">
<stop stop-color="#F8F8FA"/>
<stop offset="1" stop-color="#F4F5F7" stop-opacity="0"/>
</linearGradient>
<clipPath id="clip0">
<rect width="165" height="144" fill="white"/>
</clipPath>
</defs>
</svg>
